<svg width="1024" height="768" xmlns="http://www.w3.org/2000/svg">
 <title>heartbeats</title>
 <defs>
  <linearGradient y2="0" x2="1" y1="0" x1="0" id="heartcolor">
   <stop offset="0" stop-opacity="0.99609" stop-color="#e51414"/>
   <stop offset="1" stop-opacity="0.99609" stop-color="#cb15d8"/>
  </linearGradient>
 </defs>
 <g>
  <title>heart</title>
  <path d="m364.10648,675.51752c-263.96136,-176.90033 -358.33899,-288.80417 -359.10337,-425.79486c-0.69816,-124.88312 115.80459,-245.41457 236.54047,-244.71968c60.29077,0.34744 189.61545,46.31195 235.41071,83.66918c23.07266,18.82264 34.00296,16.96678 85.3739,-14.49989c139.81287,-85.63732 276.34161,-87.43536 364.763,-4.80193c141.31665,132.06516 115.58862,289.77416 -73.96033,453.36214c-100.77368,86.97314 -320.84454,241.26752 -344.11929,241.26752c-7.08167,0 -72.28851,-39.81744 -144.90512,-88.48248l0,0l0,0l0.00003,0z" stroke-width="10" fill-rule="evenodd" fill="url(#heartcolor)" stroke="#ffffff" id="heart"/>
  <title>beat</title>
  <path stroke-width="20" stroke="#000000" fill="none" id="path431" d="m90,390c0,0 10,0 220,0l90,-240l59,241l471,-4"/>
  <text xml:space="preserve" text-anchor="start" font-family="Noto Sans JP" font-size="250" id="svg_1" y="366" x="500" stroke-width="0" stroke="#ffffff" fill="#000000">404</text>
 </g>
</svg>