<svg
  xmlns:svg="http://www.w3.org/2000/svg"
  xmlns="http://www.w3.org/2000/svg"
  version="1.1"
  width="512"
  height="448"
  viewBox="0 0 512 448"
  id="heartbeats">
  <g>
    <path
      id="heart"
      fill="#e63946"
      d="m 365.71431,261.33402 87.14284,0 q -1.42816,1.75093
        -2.85696,3.06087 -1.4288,1.31321 -2.57152,2.18867 l
        -0.85728,1.1662 -178.00003,175.00037 Q 263.42859,448
        256.00001,448 q -7.42856,0 -12.57143,-5.24987 L
        65.142864,267.16634 q -1.428576,-0.58474 -6.000007,-5.8333
        l 105.428583,0 q 6.28571,0 11.28571,-3.93766 5,-3.93732
        6.42856,-10.06234 l 20.00002,-81.95859 54.28572,194.54194
        q 1.71428,5.83363 6.57142,9.62526 4.85715,3.79163 11.14286,
        3.79163 6,0 10.85715,-3.79163 4.85713,-3.79163 6.57142,
        -9.62526 l 41.71431,-141.45846 15.99996,32.66674 q 5.14286,
        10.20837 16.28574,10.20837 z M 512,136.50031 q 0,42.29169
        -29.42857,87.50018 l -105.42855,0 -31.71433,-64.45836 q
        -2.28576,-4.95848 -7.2857,-7.8753 -4.99997,-2.91715 -10.42854,
        -2.3324 -12.85717,1.45693 -16,13.41655 L 274.85717,288.16811
        218.85715,88.084263 q -1.71427,-5.833629 -6.71428,-9.625259
        -5,-3.79163 -11.28572,-3.79163 -6.28572,0 -11.14286,3.937651
        -4.85714,3.937323 -6.28571,10.062339 l -33.14287,135.333126
        -120.857139,0 Q 0,178.792 0,136.50031 0,72.333335 36.285712,
        36.166668 72.571437,0 136.57143,0 q 17.7143,0 36.14286,
        6.2707097 18.42858,6.2710363 34.28572,16.9168043 15.85714,
        10.645768 27.28572,19.979312 11.42857,9.333218 21.71428,
        19.833291 Q 266.28573,52.500044 277.7143,43.166826 289.14287,
        33.833282 305,23.187514 320.85715,12.541746 339.28569,6.2707097
        357.71431,0 375.42857,0 439.42855,0 475.71427,36.166668
        512,72.333335 512,136.50031 Z"/>
  </g>
</svg>


