<svg width="1024" height="768" xmlns="http://www.w3.org/2000/svg">
 <title>heartbeats</title>
 <defs>
  <linearGradient id="heartcolor" x1="0" y1="0" x2="1" y2="0">
   <stop stop-color="#e51414" stop-opacity="0.99609" offset="0"/>
   <stop stop-color="#cb15d8" stop-opacity="0.99609" offset="1"/>
  </linearGradient>
 </defs>
 <g>
  <title>heart</title>
  <path id="heart" stroke="#ffffff" fill="url(#heartcolor)" fill-rule="evenodd" stroke-width="10" d="m364.10648,675.51752c-263.96136,-176.90033 -358.33899,-288.80417 -359.10337,-425.79486c-0.69816,-124.88312 115.80459,-245.41457 236.54047,-244.71968c60.29077,0.34744 189.61545,46.31195 235.41071,83.66919c23.07266,18.82264 34.00296,16.96677 85.3739,-14.49989c139.81287,-85.63733 276.34161,-87.43536 364.763,-4.80193c141.31665,132.06516 115.58862,289.77418 -73.96033,453.36213c-100.77368,86.97314 -320.84454,241.26752 -344.11929,241.26752c-7.08167,0 -72.28851,-39.81744 -144.90512,-88.48248l0,0l0,0l0.00003,0z" />
  <title>beat</title>
  <path
     style="fill:none;stroke:#000000;stroke-width:20;stroke-linecap:butt;stroke-linejoin:miter;stroke-opacity:1"
     d="m 100,390 c 0,0 10,0 220,-0 l 90,-240 228,410 120,-290 100,120 h 90"
     id="path431" />
 </g>
</svg>